<svg xmlns="http://www.w3.org/2000/svg" shape-rendering="geometricPrecision" text-rendering="geometricPrecision" image-rendering="optimizeQuality" fill-rule="evenodd" clip-rule="evenodd" viewBox="0 0 512 336.21"><path fill-rule="nonzero" d="M292.51 273.18c-4.52 5.64-9.41 11.25-14.67 16.84-8.67 9.2-18.35 18.35-29.01 27.46l1.72-.27c1.77-.29 3.57-.61 5.37-.96l.08-.01c4.87-.99 9.67-2.2 14.39-3.67 4.74-1.46 9.38-3.18 13.94-5.16 4.64-2 9.11-4.16 13.44-6.49 4.33-2.35 8.52-4.86 12.53-7.54a143.869 143.869 0 0 0 22.26-18.29l1.55-1.57 22.29.18-1.11 1.37c-3.46 4.22-7.11 8.23-10.91 12.03l-.07.06c-3.76 3.8-7.7 7.39-11.81 10.76-4.15 3.4-8.46 6.58-12.94 9.55-4.47 3.02-9.12 5.82-13.9 8.41-4.79 2.59-9.7 4.96-14.72 7.12-5.14 2.21-10.36 4.12-15.67 5.77-5.28 1.63-10.65 3-16.1 4.11-5.45 1.11-10.99 1.94-16.62 2.49-5.66.56-11.39.84-17.17.84-5.77 0-11.47-.28-17.11-.83-5.61-.56-11.16-1.39-16.66-2.5-5.38-1.05-10.68-2.39-15.91-4.01-5.19-1.6-10.31-3.48-15.35-5.63l-.37-.13-.28-.17c-4.93-2.13-9.75-4.47-14.43-7.01-4.83-2.61-9.52-5.44-14.06-8.45-4.43-2.94-8.7-6.11-12.79-9.47-4.21-3.46-8.22-7.1-12.03-10.91l-.05-.06c-3.81-3.76-7.39-7.7-10.77-11.82-.99-1.21-1.97-2.43-2.92-3.67l22.49.19c1.06 1.13 2.15 2.24 3.26 3.35 3.45 3.45 7.01 6.69 10.69 9.71 3.69 3.03 7.54 5.89 11.58 8.58 3.99 2.69 8.14 5.21 12.46 7.54s8.82 4.49 13.5 6.48c.1.05.19.1.27.17l.17.1c4.49 1.86 9.04 3.53 13.65 4.96 4.68 1.46 9.45 2.67 14.32 3.62 1.8.35 3.6.67 5.36.96l1.61.25c-10.65-9.1-20.32-18.24-28.98-27.44-5.61-5.96-10.79-11.93-15.55-17.94l22.02.18c3.47 3.93 7.15 7.85 11.03 11.78 7.95 8.02 16.76 16.04 26.41 24.02v-35.49l16.88.13v35.36c9.59-7.97 18.37-15.98 26.33-24.01 3.64-3.68 7.11-7.36 10.4-11.05l21.96.18zm192.78 42.95a7.9 7.9 0 0 1-2.38 1.06c-.89.24-1.82.31-2.72.23-1.01-.1-1.98-.38-2.85-.83a7.542 7.542 0 0 1-2.3-1.85l-18.44-22.27-10.73 17.04c-.88 1.4-1.87 2.66-2.9 3.74l-.06.06c-1.04 1.08-2.16 1.99-3.28 2.68-1.98 1.21-4.15 1.8-6.23 1.6-1.98-.2-3.86-1.1-5.43-2.85-.64-.73-1.23-1.61-1.73-2.64-.46-.95-.85-2.05-1.15-3.29l-25.83-104.49c-.36-1.21-.29-2.42.1-3.48.3-.85.81-1.6 1.45-2.2.64-.6 1.42-1.06 2.29-1.31 1.12-.33 2.39-.33 3.65.13l9.45 4.35 88.82 41.24c1.12.52 2.09 1.1 2.92 1.72.91.67 1.66 1.41 2.26 2.19l.03.04c1.4 1.85 1.92 3.85 1.73 5.81-.19 2.11-1.2 4.13-2.75 5.84-.9.99-2.03 1.92-3.33 2.75-1.25.81-2.69 1.54-4.23 2.13-6.27 2.4-12.53 4.86-18.79 7.28l18.34 22.37c.64.77 1.1 1.66 1.38 2.59.28.95.37 1.96.27 2.95v.05c-.1.94-.37 1.88-.8 2.73l-.06.12c-.42.8-.99 1.55-1.68 2.18-3.8 3.32-10.99 9.81-15.02 12.33zm-3.68-8.1 12.3-10.14c-3.75-4.49-21.84-24.5-23.08-28.1-.39-1.09-.32-2.24.11-3.22a4.306 4.306 0 0 1 2.4-2.28c8.07-3.03 16.52-5.59 24.53-8.72.93-.37 1.78-.79 2.49-1.23.71-.45 1.3-.92 1.73-1.39.41-.45.5-.68.44-.77-.29-.4-1.09-.82-1.95-1.21l-90.63-42.3 24.11 96.9c.14.57.3 1.04.46 1.41.4.86.39.87 1.17.4.55-.34 1.12-.82 1.69-1.43.59-.63 1.17-1.4 1.71-2.25 2.41-4.14 10.64-20.32 13.5-22.6.9-.7 2.01-1 3.07-.9 1.1.11 2.17.63 2.92 1.54l22.49 26.75.54-.46zM65.85 207.09l-14.29-71.47h28.02l5.86 42.46h1.57l9.01-42.46h21.44l8 42.46h1.57l6.87-42.46h28.01l-14.29 71.47h-35.17l-5.57-30.73h-1.15l-6.14 30.73H65.85zm118.65 0-14.3-71.47h28.02l5.86 42.46h1.57l9.01-42.46h21.44l8.01 42.46h1.57l6.86-42.46h28.02l-14.3 71.47H231.1l-5.57-30.73h-1.15l-6.15 30.73H184.5zm118.65 0-14.3-71.47h28.02l5.86 42.46h1.57l9.01-42.46h21.44l8 42.46h1.58l6.86-42.46h28.01l-14.29 71.47h-35.16l-5.58-30.73h-1.14l-6.15 30.73h-33.73zM34.76 80.34H416c9.57 0 18.26 3.91 24.56 10.2 6.29 6.3 10.2 15 10.2 24.56v83.88l-15.48-7.19V115.1c0-10.59-8.67-19.28-19.28-19.28H34.76c-10.6 0-19.28 8.67-19.28 19.28v106.01c0 10.61 8.7 19.29 19.28 19.29h351.5l3.83 15.48H34.76c-9.56 0-18.26-3.91-24.56-10.21C3.91 239.38 0 230.69 0 221.11V115.1c0-9.57 3.91-18.27 10.2-24.56 6.29-6.29 14.99-10.2 24.56-10.2zm127.41-18.97c12.42-15.44 26.39-29.68 41.12-42.92l-2.45.36c-11.72 1.83-23.44 5.18-34.3 9.9-18.13 7.82-34.29 18.36-48.24 32.31l-.35.35H95.3l.18-.23c17.33-21.09 39.12-37.08 64.35-47.92a155.78 155.78 0 0 1 15.67-5.77c5.28-1.64 10.65-3 16.1-4.11 21.94-4.47 45.62-4.43 67.56 0 26.23 5.14 52.57 17.94 73.19 34.87 4.21 3.45 8.22 7.1 12.03 10.91l.05.06c3.81 3.76 7.39 7.7 10.77 11.82l.31.37H332.7l-.24-.24c-3.45-3.45-7.01-6.69-10.68-9.71-20.37-16.76-45.8-28.44-71.93-32.51l-2.22-.33c14.71 13.19 28.66 27.36 41.03 42.79h-21.98c-2.56-2.88-5.21-5.77-7.97-8.66-7.53-7.91-15.83-15.85-24.89-23.85v32.51h-16.88V28.86c-11.55 10.19-22.63 20.98-32.85 32.51h-21.92z"/></svg>