<svg id="Layer_1" data-name="Layer 1" xmlns="http://www.w3.org/2000/svg" viewBox="0 0 112.42 122.88"><title>light</title><path d="M33.37,82.31C31.92,80.65,30.44,79,29,77a38.93,38.93,0,0,1-4.09-6.82,40,40,0,0,1-2.78-7.9,35,35,0,0,1-.93-8.25h0a34.77,34.77,0,0,1,1.14-8.54,41.42,41.42,0,0,1,3.38-8.72l.13-.22a33.92,33.92,0,0,1,7-8.43A32.44,32.44,0,0,1,42,22.48l.19-.07a34.63,34.63,0,0,1,7.92-2.12,37.29,37.29,0,0,1,8.58-.2,38.37,38.37,0,0,1,8.25,1.69,37.89,37.89,0,0,1,7.63,3.41A34.86,34.86,0,0,1,83,32.1a31.59,31.59,0,0,1,5.59,9h0a37.62,37.62,0,0,1,1.82,5.81,34.14,34.14,0,0,1,.23,13.69,38,38,0,0,1-2.12,7.16C85.8,74.43,82.3,78.53,79,82.35L72.17,93.26l-.83,3.88-.24,3.2.08,4.14a25.15,25.15,0,0,1,0,4.16A15,15,0,0,1,70.1,113l0,0c-.16.41-.31.77-.46,1.08A15.78,15.78,0,0,1,62,121.6a13.8,13.8,0,0,1-10.75.36q-.55-.21-1-.45l-.16-.08a12.51,12.51,0,0,1-4.62-3.79l-.12-.17a24.63,24.63,0,0,1-2.49-4.67,3.22,3.22,0,0,1-.16-.5,35.35,35.35,0,0,1-.81-4.22c-.14-1.22-.18-2.48-.21-4.34v0a34.08,34.08,0,0,0-2.48-11.28h0a34.62,34.62,0,0,0-5.74-10.11Zm14.34,29.88,18.56-2.76a12.13,12.13,0,0,0,.18-1.23,21.56,21.56,0,0,0,0-3.41l0-1.11-20,3c0,.3.05.6.08.89a27.57,27.57,0,0,0,.68,3.52c.17.4.34.77.51,1.13Zm16.33,2-13.54,2a8.67,8.67,0,0,0,1.62,1l.11,0c.25.12.48.23.7.31a9.15,9.15,0,0,0,7.1-.28,11,11,0,0,0,4-3.13ZM46.28,102.3l20.14-3,.21-2.67,0-.31.39-1.82L45.61,97.69a33.29,33.29,0,0,1,.67,4.61ZM44.5,93.47l3.59-.53L37,57.71a2.07,2.07,0,0,1,4-1.24l.86,2.74a2.35,2.35,0,0,1,.24-.6L50.42,44.4a2.06,2.06,0,0,1,2.83-.74,2.1,2.1,0,0,1,.85,1l2.73,6.25,2.77-7a2.07,2.07,0,0,1,2.69-1.16A2,2,0,0,1,63.51,44l5,13.25a2.07,2.07,0,0,1-3.88,1.47l-3.17-8.35L58.86,57a2.1,2.1,0,0,1-1.11,1.14A2.07,2.07,0,0,1,55,57.09L51.93,50,45.64,60.71a2.07,2.07,0,0,1-2.83.73,1.83,1.83,0,0,1-.36-.26L52.14,92a2.05,2.05,0,0,1,.07.34l7.45-1.1L69.47,57.1a2.07,2.07,0,1,1,4,1.14l-9.28,32.3,4.55-.67L75,79.79a3.11,3.11,0,0,1,.25-.38l0-.06C78.4,75.79,81.68,72,84.1,66A33.21,33.21,0,0,0,86,59.71a28.69,28.69,0,0,0,.5-6.23,29.36,29.36,0,0,0-.69-5.57,31.91,31.91,0,0,0-1.6-5h0a26.69,26.69,0,0,0-4.76-7.61,29.83,29.83,0,0,0-7.26-6,32.46,32.46,0,0,0-6.67-3,33.2,33.2,0,0,0-7.22-1.48,31.82,31.82,0,0,0-7.49.18A29.43,29.43,0,0,0,44,26.79l-.18.09a27.71,27.71,0,0,0-7.84,4.82,29.55,29.55,0,0,0-6,7.28,37,37,0,0,0-3,7.71,30.43,30.43,0,0,0-1,7.39,29.78,29.78,0,0,0,.82,7.15,35.86,35.86,0,0,0,2.44,7,34.39,34.39,0,0,0,3.61,6c1.33,1.8,2.73,3.41,4.11,5a39.63,39.63,0,0,1,6.62,11.55h0c.35.9.66,1.82,1,2.73ZM3.59,60A3.53,3.53,0,0,1,0,56.55a3.52,3.52,0,0,1,3.42-3.63l8.43-.29A3.52,3.52,0,0,1,15.48,56a3.51,3.51,0,0,1-1,2.53,3.6,3.6,0,0,1-2.47,1.11L3.59,60Zm105-11.29a3.51,3.51,0,0,1,3.83,3.15V52a3.51,3.51,0,0,1-3.16,3.72l-8.39.88a3.53,3.53,0,0,1-.72-7l8.43-.88ZM92.18,15l.09-.13a3.56,3.56,0,0,1,2.16-1.37,3.51,3.51,0,0,1,2.63.53l.14.09a3.62,3.62,0,0,1,1.37,2.16A3.56,3.56,0,0,1,98,18.9l-4.69,7a3.53,3.53,0,0,1-2.24,1.5H91A3.52,3.52,0,0,1,87,24.63,3.49,3.49,0,0,1,87.49,22l4.69-7ZM55.82,3.48a.79.79,0,0,1,0-.22A3.51,3.51,0,0,1,59.39,0h.22A3.57,3.57,0,0,1,61.9,1.1a3.53,3.53,0,0,1,1,2.47.91.91,0,0,1,0,.17L62.65,12a.74.74,0,0,1,0,.21,3.49,3.49,0,0,1-3.56,3.26.74.74,0,0,1-.21,0,3.49,3.49,0,0,1-3.26-3.56.48.48,0,0,1,0-.17l.21-8.25ZM13.92,17.61a3.53,3.53,0,0,1-.19-5,3.54,3.54,0,0,1,5-.18l6.17,5.75a3.54,3.54,0,0,1,.18,5,3.53,3.53,0,0,1-5,.18l-6.17-5.75Z"/></svg>