<svg xmlns="http://www.w3.org/2000/svg" shape-rendering="geometricPrecision" text-rendering="geometricPrecision" image-rendering="optimizeQuality" fill-rule="evenodd" clip-rule="evenodd" viewBox="0 0 508 512.21"><path d="M133.82 177.64h58.23c4.56 0 8.29 3.72 8.29 8.28v110.1c0 4.56-3.73 8.29-8.29 8.29h-58.23c-4.55 0-8.28-3.73-8.28-8.29v-110.1c0-4.56 3.73-8.28 8.28-8.28zm-.38 290.01 82-78.64c2.58-2.48 5.9-3.71 9.22-3.71l245.51-.04c3.05 0 5.84-1.26 7.87-3.29a11.14 11.14 0 0 0 3.28-7.87V37.84c0-3.02-1.28-5.8-3.31-7.83-2.04-2.04-4.85-3.34-7.84-3.34H37.84c-2.96 0-5.76 1.32-7.8 3.37-2.05 2.04-3.36 4.84-3.36 7.8V374.1c0 3 1.28 5.8 3.33 7.85l.48.52c1.94 1.72 4.53 2.79 7.35 2.79h82.26c7.36 0 13.34 5.98 13.34 13.34v69.05zm96.54-55.72-99.99 95.9a13.335 13.335 0 0 1-9.89 4.38c-7.36 0-13.34-5.98-13.34-13.34v-86.94H37.84c-9.92 0-19.01-3.93-25.78-10.29l-.92-.83C4.27 393.94 0 384.44 0 374.1V37.84c0-10.33 4.32-19.81 11.17-26.67C18.03 4.32 27.52 0 37.84 0h432.33C480.5 0 490 4.27 496.88 11.15 503.69 17.97 508 27.44 508 37.84V374.1c0 10.41-4.25 19.89-11.1 26.73-6.85 6.85-16.32 11.1-26.73 11.1H229.98zm27.71-310.43c1.17-5.9 4.2-9.69 8.37-11.61 3.38-1.57 7.32-1.72 11.42-.64 3.56.93 7.31 2.83 10.89 5.56 9.71 7.4 18.81 21.32 19.97 38.74.35 5.35.26 11.08-.25 17.15-.33 4.03-.86 8.24-1.55 12.65h41.3l.19.02c6.72.26 13.22 1.89 18.69 4.77 4.74 2.48 8.74 5.87 11.51 10.1 2.86 4.36 4.43 9.54 4.19 15.45-.17 4.39-1.34 9.15-3.73 14.23 1.37 5.71 1.99 11.85 1.11 17.22-.74 4.58-2.52 8.65-5.71 11.66.15 7.56-.85 13.9-2.88 19.38-2.09 5.64-5.22 10.31-9.24 14.46-.35 3.61-.94 7.07-1.85 10.31-1.16 4.07-2.82 7.81-5.15 11.09h-.01c-7.05 9.93-12.68 9.71-21.6 9.34-1.24-.04-2.57-.11-4.64-.11H247.9c-7.28 0-12.98-1.05-18.2-3.65-5.16-2.58-9.57-6.56-14.28-12.46l-1.2-3.43v-94.25l4.1-1.1c10.42-2.81 18.62-11.72 24.98-22.38 6.55-10.96 11.15-23.82 14.29-34.19v-27.25l.1-1.06zm12.98-1.6c-.89.4-1.62 1.46-2.05 3.22v27.47l-.23 1.58c-3.34 11.12-8.32 25.2-15.65 37.48-6.88 11.54-15.84 21.45-27.48 26.03v84.1c3.19 3.78 6.13 6.35 9.36 7.96 3.55 1.77 7.74 2.5 13.28 2.5h80.82c1.44 0 3.32.07 5.07.14 5.29.21 8.63.35 12.2-4.69v-.03c1.56-2.19 2.69-4.78 3.51-7.68.88-3.1 1.39-6.53 1.64-10.19l1.7-3.63c3.56-3.36 6.28-7.16 8.01-11.82 1.78-4.8 2.54-10.58 2.11-17.82l-.18-3.27 2.77-1.73c1.9-1.17 2.94-3.41 3.38-6.14.7-4.34-.03-9.68-1.39-14.63l.43-3.99c2.25-4.29 3.32-8.11 3.46-11.46.12-3.47-.78-6.5-2.43-9.02-1.73-2.64-4.28-4.78-7.36-6.4-3.98-2.09-8.78-3.28-13.8-3.5v.01h-54.49l1.22-6.53c1.19-6.32 2.04-12.35 2.52-18.06.47-5.6.56-10.78.25-15.52-.93-13.9-8.05-24.93-15.65-30.71-2.43-1.85-4.83-3.1-7.02-3.67-1.64-.44-3.01-.46-4 0zm-98.61 163.91c5.82 0 10.54 4.72 10.54 10.54 0 5.82-4.72 10.53-10.54 10.53-5.82 0-10.54-4.71-10.54-10.53 0-5.82 4.72-10.54 10.54-10.54z"/></svg>